<!DOCTYPE svg PUBLIC "-//W3C//DTD SVG 1.1//EN" "http://www.w3.org/Graphics/SVG/1.1/DTD/svg11.dtd">
<!-- Uploaded to: SVG Repo, www.svgrepo.com, Transformed by: SVG Repo Mixer Tools -->
<svg width="800px" height="800px" viewBox="-4.8 -4.8 57.60 57.60" version="1" xmlns="http://www.w3.org/2000/svg" enable-background="new 0 0 48 48" fill="#000000">
<g id="SVGRepo_bgCarrier" stroke-width="0" transform="translate(0,0), scale(1)">
<rect x="-4.8" y="-4.8" width="57.60" height="57.60" rx="28.8" fill="#7ed0ec" strokewidth="0"/>
</g>
<g id="SVGRepo_tracerCarrier" stroke-linecap="round" stroke-linejoin="round"/>
<g id="SVGRepo_iconCarrier"> <path fill="#b171fe" d="M25,22h13l6,6V11c0-2.2-1.8-4-4-4H25c-2.2,0-4,1.8-4,4v7C21,20.2,22.8,22,25,22z"/> <path fill="#e5ebff" d="M23,19H10l-6,6V8c0-2.2,1.8-4,4-4h15c2.2,0,4,1.8,4,4v7C27,17.2,25.2,19,23,19z"/> <g fill="#fefba4"> <circle cx="12" cy="31" r="5"/> <circle cx="36" cy="31" r="5"/> </g> <g fill="#fefba4"> <path d="M20,42c0,0-2.2-4-8-4s-8,4-8,4v2h16V42z"/> <path d="M44,42c0,0-2.2-4-8-4s-8,4-8,4v2h16V42z"/> </g> </g>
</svg>