<?xml version="1.0" encoding="UTF-8" standalone="no"?>
<!DOCTYPE svg PUBLIC "-//W3C//DTD SVG 1.1//EN" "http://www.w3.org/Graphics/SVG/1.1/DTD/svg11.dtd">
<svg xmlns="http://www.w3.org/2000/svg" version="1.1" viewBox="0.00 0.00 236.00 210.00">
<path fill="#ffffff" d="
  M 58.86 23.42
  Q 72.78 40.32 91.85 59.89
  C 104.24 72.61 117.26 81.63 133.81 87.40
  Q 146.28 91.75 158.39 96.95
  C 159.68 97.50 161.29 99.19 161.45 100.44
  A 2.61 2.60 84.3 0 1 159.06 103.37
  C 149.24 104.07 142.58 103.20 129.92 101.90
  Q 116.87 100.56 103.88 98.82
  C 91.16 97.11 82.43 97.24 71.33 101.18
  C 56.84 106.33 45.56 114.24 41.45 129.39
  Q 41.30 129.95 41.63 129.48
  C 78.05 77.83 151.53 147.09 114.21 186.47
  Q 112.97 187.78 114.77 187.63
  C 127.98 186.52 155.47 178.79 164.76 192.48
  Q 169.47 199.42 162.57 203.13
  A 1.61 1.59 48.5 0 1 160.87 203.02
  Q 146.91 193.04 129.31 195.86
  Q 119.74 197.39 97.51 201.82
  Q 96.65 201.99 94.60 200.90
  A 1.30 1.28 4.2 0 1 94.00 200.22
  C 91.63 194.06 98.36 190.87 101.65 186.69
  C 112.79 172.57 115.16 152.75 105.88 137.29
  C 96.74 122.07 77.83 119.03 61.80 125.56
  Q 49.57 130.54 46.88 144.44
  Q 44.48 156.83 42.72 169.36
  C 42.52 170.81 41.87 172.04 41.22 173.31
  A 1.31 1.31 0.0 0 1 40.49 173.94
  Q 37.03 175.17 35.39 171.32
  Q 27.22 152.16 29.64 131.81
  Q 29.70 131.35 29.26 131.52
  C 10.30 138.84 7.67 111.87 23.64 112.09
  C 28.46 112.15 29.75 114.34 32.83 117.51
  Q 33.24 117.93 33.48 117.39
  C 38.81 105.15 50.00 99.13 61.91 93.59
  Q 73.33 88.28 85.91 87.20
  C 94.48 86.47 104.15 88.56 112.98 90.33
  A 0.35 0.35 0.0 0 0 113.24 89.70
  Q 78.61 66.69 52.42 34.32
  C 47.33 28.04 42.97 21.40 40.01 14.50
  Q 38.40 10.73 41.42 7.78
  Q 41.75 7.45 42.22 7.46
  C 62.65 8.02 84.53 16.24 102.88 26.07
  Q 134.48 43.00 161.94 66.05
  C 176.05 77.89 217.41 116.51 206.80 137.53
  C 201.20 148.62 169.80 151.41 158.68 156.09
  C 153.01 158.48 146.44 162.75 142.25 164.99
  Q 134.78 168.99 135.26 177.06
  C 135.46 180.36 135.93 183.15 132.25 183.71
  C 128.97 184.21 126.10 180.60 125.13 177.95
  Q 124.22 175.47 125.04 171.99
  Q 128.49 157.42 142.31 150.51
  C 159.72 141.81 181.14 140.45 197.01 132.65
  Q 197.47 132.42 197.49 131.91
  C 198.52 110.79 171.49 87.41 156.38 75.60
  Q 125.38 51.36 88.33 33.66
  Q 73.47 26.56 59.12 23.01
  Q 58.37 22.82 58.86 23.42
  Z"
/>
</svg>
