<svg width="2004" height="558" viewBox="0 0 2004 558" fill="none" xmlns="http://www.w3.org/2000/svg">
<g clip-path="url(#clip0_17_2)">
<rect x="852" width="1184" height="222" fill="#1E0D77"/>
<path fill-rule="evenodd" clip-rule="evenodd" d="M-49.6616 235.106L81.2079 193.296C212.286 150.393 474.442 64.5872 702.176 153.333C930.978 242.282 1126.64 504.894 1363.78 550.154C1599.85 595.211 1878.47 423.12 2017.89 336.528L2157.31 249.937V249.937L2038.73 227.307C1920.16 204.676 1683.02 159.416 1446.95 114.359C1209.81 69.0987 972.67 23.8382 735.529 -21.4223C499.457 -66.479 262.316 -111.739 143.746 -134.37L25.1755 -157L-49.6616 235.106Z" fill="url(#paint0_linear_17_2)"/>
</g>
<defs>
<linearGradient id="paint0_linear_17_2" x1="1091.24" y1="46.4684" x2="1008.06" y2="482.263" gradientUnits="userSpaceOnUse">
<stop stop-color="#1C0D77"/>
<stop offset="0.473958" stop-color="#39107A"/>
</linearGradient>
<clipPath id="clip0_17_2">
<rect width="2004" height="558" fill="white"/>
</clipPath>
</defs>
</svg>
