<svg viewBox="0 0 945 554" xmlns="http://www.w3.org/2000/svg" xmlns:xlink="http://www.w3.org/1999/xlink"><defs><linearGradient id="b" x1="50%" x2="50%" y1="11.845%" y2="100%"><stop stop-color="#A244F8" offset="0"/><stop stop-color="#50529A" offset="1"/></linearGradient><linearGradient id="k" x1="49.933%" x2="50.072%" y1="99.935%" y2="-7.081%"><stop stop-color="#36078A" offset="0"/><stop stop-color="#15B1FF" offset="1"/></linearGradient><linearGradient id="n" x1="46.854%" x2="52.381%" y1="95.666%" y2="-2.092%"><stop stop-color="#36078A" offset="0"/><stop stop-color="#15B1FF" offset="1"/></linearGradient><linearGradient id="q" y1="2.864%" y2="97.136%"><stop stop-color="#FFF3B0" offset="0"/><stop stop-color="#CA26FF" offset="1"/></linearGradient><linearGradient id="v" x1="72.757%" x2="57.391%" y2="98.08%"><stop stop-color="#fff" offset="0"/><stop stop-color="#C2D7F3" offset="1"/></linearGradient><linearGradient id="B" x1="49.935%" x2="50.07%" y1="99.935%" y2="-7.081%"><stop stop-color="#36078A" offset="0"/><stop stop-color="#15B1FF" offset="1"/></linearGradient><linearGradient id="E" x1="50%" x2="50%" y2="100%"><stop stop-color="#D17AFF" offset="0"/><stop stop-color="#816DFF" offset="1"/></linearGradient><linearGradient id="H" x1="68.365%" x2="68.365%" y1="-22.885%" y2="109.29%"><stop stop-color="#F9FBFE" offset="0"/><stop stop-color="#C2D7F3" offset="1"/></linearGradient><linearGradient id="T" x1="50%" x2="50%" y1="-6.94%" y2="98.998%"><stop stop-color="#EE9AE5" offset="0"/><stop stop-color="#5961F9" offset="1"/></linearGradient><linearGradient id="U" x1="48.202%" x2="51.798%" y2="100%"><stop stop-color="#CE9FFC" offset="0"/><stop stop-color="#7367F0" offset="1"/></linearGradient><linearGradient id="X" x1="81.772%" x2="17.51%" y1="85.252%" y2="16.692%"><stop stop-color="#00C9FF" offset="0"/><stop stop-color="#92FE9D" offset="1"/></linearGradient><linearGradient id="Y" x1="24.918%" x2="50%" y1="13.473%" y2="98.908%"><stop stop-color="#FFA1EB" offset="0"/><stop stop-color="#FD575B" offset="1"/></linearGradient><linearGradient id="ad" x1="50%" y1="2.205%" y2="97.795%"><stop stop-color="#CE9FFC" offset="0"/><stop stop-color="#7367F0" offset="1"/></linearGradient><linearGradient id="ag" x1="50%" x2="50%" y2="100%"><stop stop-color="#FEE5AC" offset="0"/><stop stop-color="#FFB181" offset="1"/></linearGradient><linearGradient id="aj" x1="50%" x2="50%" y2="100%"><stop stop-color="#72D0FF" offset="0"/><stop stop-color="#349EFA" offset="1"/></linearGradient><linearGradient id="ao" y1="2.205%" y2="97.795%"><stop stop-color="#70F570" offset="0"/><stop stop-color="#49C628" offset="1"/></linearGradient><linearGradient id="at" x1="50%" x2="50%" y1="100%" y2="0%"><stop stop-color="#A75BFF" offset="0"/><stop stop-color="#E2CBFF" offset="1"/></linearGradient><linearGradient id="aw" x1="28.359%" x2="71.641%" y2="100%"><stop stop-color="#70F570" offset="0"/><stop stop-color="#49C628" offset="1"/></linearGradient><linearGradient id="ax" x2="98.918%" y1="29.337%" y2="70.216%"><stop stop-color="#FFF720" offset="0"/><stop stop-color="#3CD500" offset="1"/></linearGradient><linearGradient id="ay" x1="9.07%" x2="89.781%" y2="98.597%"><stop stop-color="#81FBB8" offset="0"/><stop stop-color="#28C76F" offset="1"/></linearGradient><linearGradient id="az" x1="50%" x2="50%" y2="100%"><stop stop-color="#D7CBFF" offset="0"/><stop stop-color="#5F58FF" offset="1"/></linearGradient><linearGradient id="aB" x1="35.308%" x2="50%" y1="42.773%" y2="60.234%"><stop stop-color="#737895" offset="0"/><stop stop-color="#3F435C" offset="1"/></linearGradient><linearGradient id="aE" x1="35.308%" x2="50%" y1="45.983%" y2="55.688%"><stop stop-color="#737895" offset="0"/><stop stop-color="#3F435C" offset="1"/></linearGradient><linearGradient id="aH" x1="95.655%" x2="66.052%" y1="27.011%" y2="53.966%"><stop stop-color="#FFD8BA" offset="0"/><stop stop-color="#FFAF84" offset="1"/></linearGradient><linearGradient id="aJ" x1="66.778%" x2="47.175%" y1="13.382%" y2="79.652%"><stop stop-color="#FFD8BA" offset="0"/><stop stop-color="#FFAF84" offset="1"/></linearGradient><linearGradient id="aK" x1="50%" x2="50%" y1="4.669%" y2="100%"><stop stop-color="#687E9E" offset="0"/><stop stop-color="#293549" offset="1"/></linearGradient><linearGradient id="aL" x1="6.408%" x2="43.566%" y1="45.567%" y2="60.104%"><stop stop-color="#FFD8BA" offset="0"/><stop stop-color="#FFAF84" offset="1"/></linearGradient><linearGradient id="aM" x1="54.445%" x2="40.306%" y1="100.77%" y2="25.398%"><stop stop-color="#FFBA67" offset="0"/><stop stop-color="#FF635E" offset="1"/></linearGradient><linearGradient id="aO" x1="34.566%" x2="72.952%" y1="-35.029%" y2="139.05%"><stop stop-color="#FFF3B0" offset="0"/><stop stop-color="#CA26FF" offset="1"/></linearGradient><linearGradient id="aP" x1="50%" x2="50%" y1="2.913%" y2="96.62%"><stop stop-color="#AA59FE" offset="0"/><stop stop-color="#6C23FB" offset="1"/></linearGradient><linearGradient id="aQ" x1="35.308%" x2="50%" y1="41.56%" y2="61.951%"><stop stop-color="#737895" offset="0"/><stop stop-color="#3F435C" offset="1"/></linearGradient><linearGradient id="aR" x1="35.308%" x2="50%" y1="45.728%" y2="56.049%"><stop stop-color="#737895" offset="0"/><stop stop-color="#3F435C" offset="1"/></linearGradient><linearGradient id="aS" x1="50%" x2="50%" y2="100%"><stop stop-color="#FFBA67" offset="0"/><stop stop-color="#FF635E" offset="1"/></linearGradient><linearGradient id="aT" x1="50%" x2="43.776%" y2="94.609%"><stop stop-color="#ABDCFF" offset="0"/><stop stop-color="#0396FF" offset="1"/></linearGradient><linearGradient id="aU" x1="55.674%" x2="50%" y1="12.88%" y2="100%"><stop stop-color="#FFE8E0" offset="0"/><stop stop-color="#FDCDBD" offset="1"/></linearGradient><linearGradient id="aX" x1="50%" x2="50%" y2="100%"><stop stop-color="#FEBADB" offset="0"/><stop stop-color="#FF5DE1" offset="1"/></linearGradient><linearGradient id="ba" x1="50%" x2="50%" y2="100%"><stop stop-color="#FFE8E0" offset="0"/><stop stop-color="#FDCDBD" offset="1"/></linearGradient><linearGradient id="bd" x1="3.772%" x2="96.228%" y2="100%"><stop stop-color="#FFE3BC" offset="0"/><stop stop-color="#FF64F3" offset="1"/></linearGradient><linearGradient id="bh" x1="50%" x2="50%" y1="-38.501%" y2="56.947%"><stop stop-color="#EED3C0" offset="0"/><stop stop-color="#D9A78C" offset="1"/></linearGradient><linearGradient id="bj" x1="50%" x2="50%" y2="100%"><stop stop-color="#F6E1D3" offset="0"/><stop stop-color="#EAC0A7" offset="1"/></linearGradient><linearGradient id="bk" x1="50%" x2="50%" y2="100%"><stop stop-color="#A20305" offset="0"/><stop stop-color="#690102" offset="1"/></linearGradient><path id="a" d="M152.2.636C53.509 36.88.19 116.836 0 171.306v.569c.086 25.093 11.531 44.683 35.104 51.94 103.28 31.812 152.33-44.641 152.4-97.697v-.134c0-.667-.006-1.336-.024-1.997C185.993 61.745 152.2.637 152.2.637z"/><path id="d" d="M97.47 22.618c-5.476 7.714-10.615 15.666-15.538 23.743A507.317 507.317 0 0055.249 96.42c-15.94 34.334-28.146 70.339-37.218 107.08-8.67 36.836-14.33 74.394-16.514 112.16C-.783 353.424-.11 391.342 3.296 429l1.035-.092.3-14.22c.05-4.727-.095-9.437.06-14.158l.434-14.14c.137-4.707.253-9.401.622-14.101.508-9.395.72-18.772 1.6-28.116.392-4.674.663-9.345.972-14.015l1.354-13.97c.434-4.659.868-9.309 1.535-13.938l1.627-13.908c.544-4.635 1.326-9.24 1.977-13.854.696-4.617 1.306-9.237 2.201-13.813 2.942-18.41 6.72-36.654 11.112-54.733 4.248-18.123 9.438-36.003 15.208-53.692 5.568-17.766 12.293-35.14 19.36-52.395 7.255-17.171 15.16-34.111 23.947-50.642C95.111 32.482 104.903 16.42 115.694.927l-.761-.705c-6.303 7.116-11.987 14.672-17.462 22.395"/><path id="f" d="M46.787.437c-3.283.241-6.5.792-9.75 1.211-3.195.68-6.4 1.3-9.55 2.127-3.125.947-6.272 1.748-9.308 2.99C12.064 9.034 6.098 11.813.628 15.859l.202.64c12.315-3.392 24.835-6.13 37.439-8.274 12.57-2.273 25.313-3.95 38.115-3.835l.018-.668C70.014 1.249 63.294.383 56.675.173a53.873 53.873 0 00-2.256-.046c-2.553 0-5.094.164-7.632.31"/><path id="h" d="M44.675.816a74.688 74.688 0 00-16.31 3.27C23.109 5.752 18.08 8.03 13.289 10.764 8.503 13.513 3.933 16.74.019 21.155l.293.625c4.954-2.066 9.97-4.01 14.987-5.917a320.981 320.981 0 0115.23-5.253c5.109-1.659 10.26-3.188 15.465-4.5 5.224-1.237 10.48-2.336 15.798-3.093l-.077-.68C57.678 1.071 53.577.618 49.529.618c-1.627 0-3.247.073-4.852.197"/><path id="j" d="M.16 1.273c2.244 3.438 3.424 6.122 4.5 8.908 1.105 2.712 1.937 5.58 2.947 8.476.99 2.903 2.055 5.918 3.304 9.045 1.314 3.124 2.732 6.324 4.96 9.744h.614c.074-3.532-.198-7.049-.715-10.537-.502-3.488-1.251-6.955-2.376-10.311-1.192-3.32-2.638-6.609-4.814-9.424C6.468 4.329 3.66 1.98.383.689l-.224.584z"/><path id="m" d="M.125.944c1.167 2.888 1.458 5.092 1.782 7.348.306 2.228.408 4.515.615 6.881.186 2.354.519 4.792.906 7.34.402 2.55.963 5.174 2.088 8.077l.474.1a51.408 51.408 0 001.356-15.924C7.094 12.1 6.578 9.419 5.48 6.917 4.436 4.42 2.759 2.091.398.562L.125.944z"/><path id="p" d="M95.903.363C23.309 1.913-20.037 60.085 9.822 81.722c41.814 30.307 75.639 2.668 83.123-21.134 3.687-11.724 4.798-24.227 4.847-34.786v-1.473C97.728 10.504 95.902.362 95.902.362z"/><path id="s" d="M86.206 15.591l-5.092 4.31-4.853 4.576c-3.305 2.983-6.29 6.284-9.334 9.526-12.048 13.102-22.351 27.723-31.324 43.083l-6.289 11.776c-.513.985-1.068 1.95-1.55 2.95l-1.368 3.045-2.737 6.088-2.735 6.084c-.45 1.02-.935 2.02-1.351 3.05l-1.156 3.13-4.633 12.511c-1.668 4.13-2.799 8.439-4.078 12.697L5.93 151.211c-2.125 8.63-3.943 17.341-5.93 26.006l.48.093c2.92-8.47 5.14-17.04 7.935-25.434l4.432-12.487c1.498-4.147 2.73-8.376 4.556-12.39 1.696-4.063 3.378-8.118 4.976-12.204l1.216-3.056c.433-1.006.937-1.981 1.401-2.973l2.843-5.93c.962-1.968 1.866-3.96 2.786-5.95l1.37-2.98c.484-.979 1.04-1.923 1.554-2.886l6.287-11.509c.971-1.963 2.187-3.777 3.32-5.644l3.434-5.576c1.166-1.845 2.246-3.746 3.48-5.547 1.259-1.781 2.544-3.54 3.77-5.35L57.556 52c1.206-1.826 2.657-3.458 3.977-5.196 2.743-3.392 5.29-6.966 8.23-10.195l4.295-4.958c1.388-1.702 3.017-3.16 4.484-4.785l4.539-4.762 4.773-4.518A152.266 152.266 0 01108.383.948l-.21-.44c-7.898 4.161-15.094 9.448-21.967 15.083"/><path id="u" d="M199.96.831C70.3 48.167.24 152.601 0 223.731v.743c.113 32.773 15.15 58.357 46.12 67.835 135.69 41.547 200.14-58.303 200.23-127.6v-.175c0-.871-.008-1.746-.031-2.609-1.954-81.29-46.354-161.1-46.354-161.1z"/><path id="x" d="M127.72 29.577c-7.175 10.088-13.91 20.486-20.36 31.048-12.873 21.14-24.534 43.015-34.964 65.462-20.886 44.898-36.881 91.982-48.769 140.02-11.361 48.17-18.778 97.285-21.639 146.68-3.013 49.383-2.132 98.969 2.33 148.21l1.357-.12.394-18.597c.066-6.181-.125-12.34.078-18.514l.569-18.49c.179-6.155.33-12.294.814-18.44.667-12.287.943-24.549 2.097-36.768.514-6.111.87-12.219 1.274-18.327l1.774-18.269c.569-6.092 1.138-12.173 2.01-18.226l2.133-18.187c.713-6.06 1.738-12.083 2.592-18.117.912-6.037 1.71-12.079 2.884-18.063 3.854-24.073 8.804-47.932 14.56-71.574 5.566-23.7 12.368-47.08 19.929-70.212 7.296-23.233 16.108-45.952 25.368-68.516 9.505-22.455 19.865-44.606 31.378-66.225 11.1-21.879 23.93-42.883 38.07-63.143L150.6.287c-8.259 9.306-15.707 19.187-22.882 29.286"/><path id="y" d="M61.978.566c-4.349.312-8.611 1.025-12.917 1.567-4.23.88-8.477 1.683-12.649 2.752-4.14 1.226-8.308 2.262-12.331 3.87-8.1 2.935-16.003 6.53-23.25 11.768l.267.828c16.314-4.39 32.9-7.934 49.594-10.708 16.652-2.942 33.532-5.11 50.49-4.962l.024-.866C92.744 1.617 83.842.495 75.074.225c-.999-.041-1.994-.06-2.988-.06-3.382 0-6.748.212-10.11.401"/><path id="A" d="M.206 1.675C3.111 6.2 4.637 9.73 6.03 13.395c1.43 3.57 2.507 7.344 3.815 11.152 1.281 3.82 2.66 7.788 4.275 11.902 1.701 4.11 3.536 8.321 6.418 12.821h.795c.097-4.647-.256-9.275-.925-13.864-.65-4.589-1.62-9.151-3.075-13.567-1.542-4.369-3.414-8.695-6.229-12.4C8.37 5.696 4.738 2.606.496.906l-.29.769z"/><path id="D" d="M96.341.395C33.87 23.225.116 73.591 0 107.895v.358C.054 124.06 7.3 136.4 22.221 140.97c65.378 20.038 96.428-28.119 96.469-61.539v-.084c0-.42-.004-.842-.015-1.258C117.734 38.883 96.342.393 96.342.393z"/><path id="G" d="M61.444 14.746c-3.452 4.862-6.692 9.874-9.795 14.964a319.855 319.855 0 00-16.821 31.551C24.78 82.9 17.085 105.593 11.366 128.748 5.9 151.964 2.332 175.636.956 199.441c-1.45 23.801-1.026 47.7 1.121 71.434l.653-.058.19-8.963c.031-2.979-.06-5.947.037-8.923l.273-8.912c.087-2.966.16-5.925.392-8.887.32-5.921.454-11.831 1.009-17.721.248-2.946.418-5.89.613-8.833l.853-8.805c.274-2.936.548-5.867.968-8.785l1.025-8.765c.343-2.921.837-5.824 1.247-8.732.439-2.91.823-5.822 1.388-8.706 1.854-11.602 4.235-23.102 7.005-34.496 2.677-11.422 5.95-22.69 9.587-33.84 3.51-11.198 7.75-22.148 12.204-33.022 4.573-10.822 9.557-21.499 15.096-31.918 5.34-10.545 11.512-20.668 18.315-30.433l-.48-.444c-3.973 4.485-7.557 9.247-11.008 14.115"/><path id="J" d="M29.548.8c-2.074.158-4.106.517-6.16.791-2.017.445-4.042.85-6.031 1.39-1.975.618-3.962 1.142-5.88 1.953C7.614 6.416 3.845 8.231.39 10.874l.127.419c7.78-2.217 15.688-4.005 23.65-5.406 7.94-1.485 15.99-2.58 24.076-2.505l.011-.437C44.22 1.331 39.974.765 35.794.628c-.477-.021-.951-.03-1.426-.03-1.612 0-3.217.106-4.82.202"/><path id="L" d="M28.409.52A46.092 46.092 0 0018.198 2.6c-3.29 1.06-6.439 2.51-9.439 4.25-2.996 1.749-5.857 3.802-8.308 6.612l.184.398c3.101-1.314 6.242-2.552 9.382-3.765a198.581 198.581 0 019.535-3.343c3.199-1.056 6.424-2.029 9.682-2.863 3.27-.788 6.56-1.487 9.89-1.969l-.048-.433C36.55.682 33.982.394 31.446.394c-1.017 0-2.032.047-3.037.125"/><path id="N" d="M.114.804c1.466 2.195 2.237 3.91 2.94 5.689.722 1.732 1.265 3.564 1.925 5.413.647 1.854 1.343 3.78 2.158 5.777.86 1.995 1.785 4.038 3.24 6.223h.402c.048-2.256-.13-4.502-.467-6.73-.328-2.227-.818-4.442-1.553-6.585-.778-2.12-1.723-4.22-3.144-6.019C4.235 2.756 2.4 1.256.26.431L.114.804z"/><path id="P" d="M.078 1.116C.808 2.99.99 4.42 1.192 5.886c.191 1.445.255 2.93.384 4.466.117 1.528.325 3.11.567 4.764.25 1.656.601 3.358 1.305 5.243l.296.065a34.613 34.613 0 00.847-10.337c-.157-1.73-.48-3.47-1.166-5.094C2.773 3.37 1.725 1.86.25.868l-.17.247z"/><path id="S" d="M5 0h80.362v450.13H2.587A2.587 2.587 0 010 447.543V5.003a5 5 0 015-5z"/><path id="av" d="M104.47 86.928h575.71a3.813 3.813 0 013.813 3.813v26.688a3.813 3.813 0 01-3.813 3.812H104.47a3.813 3.813 0 01-3.813-3.812V90.74a3.813 3.813 0 013.813-3.813z"/><path id="aA" d="M.844.833H22.9v9.978H.844z"/><path id="aD" d="M.36.825h29.608v9.986H.36z"/><path id="aG" d="M.005.162h67.679v45.891H.004z"/><path id="aN" d="M77.899 3.094s-.32 2.697-6.945-.105c-12.428-5.261-25.098-2.472-28.575 0-3.405 2.42-3.858 4.939-2.81 6.94-2.745 2.324-4.556 5.503-4.569 7.85C34.94 27.801 41.692 38 49.022 38c11.705 0 16.861-13.365 16.201-21.069-.058-.684-.119-1.377-.19-2.068l1.128.196C79.892 17.495 77.9 3.094 77.9 3.094"/><path id="aV" d="M.285.246h37.399v35.522H.285z"/><path id="bc" d="M25 13c0-7.18-5.596-13-12.5-13S0 5.82 0 13s5.596 13 12.5 13S25 20.18 25 13"/><path id="be" d="M11.48.142C5.14.142 0 5.549 0 12.22c0 6.67 5.14 12.078 11.48 12.078 6.34 0 11.48-5.408 11.48-12.078C22.96 5.55 17.82.142 11.48.142z"/><path id="bg" d="M11.48.142C5.14.142 0 5.549 0 12.22c0 6.67 5.14 12.078 11.48 12.078 6.34 0 11.48-5.408 11.48-12.078C22.96 5.55 17.82.142 11.48.142z"/><filter id="R" x="-27.5%" y="-3.4%" width="155.1%" height="110.4%"><feOffset dy="8" in="SourceAlpha" result="shadowOffsetOuter1"/><feGaussianBlur in="shadowOffsetOuter1" result="shadowBlurOuter1" stdDeviation="6.5"/><feComposite in="shadowBlurOuter1" in2="SourceAlpha" operator="out" result="shadowBlurOuter1"/><feColorMatrix in="shadowBlurOuter1" values="0 0 0 0 0 0 0 0 0 0 0 0 0 0 0 0 0 0 0.02 0"/></filter><filter id="V" x="-41.7%" y="-138.1%" width="183.5%" height="652.3%"><feOffset dy="5" in="SourceAlpha" result="shadowOffsetOuter1"/><feGaussianBlur in="shadowOffsetOuter1" result="shadowBlurOuter1" stdDeviation="2.5"/><feColorMatrix in="shadowBlurOuter1" values="0 0 0 0 0 0 0 0 0 0 0 0 0 0 0 0 0 0 0.0800215127 0"/></filter><filter id="Z" x="-120.8%" y="-60.4%" width="341.6%" height="341.6%"><feOffset dy="5" in="SourceAlpha" result="shadowOffsetOuter1"/><feGaussianBlur in="shadowOffsetOuter1" result="shadowBlurOuter1" stdDeviation="2.5"/><feColorMatrix in="shadowBlurOuter1" values="0 0 0 0 0 0 0 0 0 0 0 0 0 0 0 0 0 0 0.0800215127 0"/></filter><filter id="ab" x="-14.2%" y="-9.8%" width="128.4%" height="128.2%"><feOffset dy="6" in="SourceAlpha" result="shadowOffsetOuter1"/><feGaussianBlur in="shadowOffsetOuter1" result="shadowBlurOuter1" stdDeviation="5.5"/><feComposite in="shadowBlurOuter1" in2="SourceAlpha" operator="out" result="shadowBlurOuter1"/><feColorMatrix in="shadowBlurOuter1" values="0 0 0 0 0 0 0 0 0 0 0 0 0 0 0 0 0 0 0.02 0"/></filter><filter id="ae" x="-14.2%" y="-9.8%" width="128.4%" height="128.2%"><feOffset dy="6" in="SourceAlpha" result="shadowOffsetOuter1"/><feGaussianBlur in="shadowOffsetOuter1" result="shadowBlurOuter1" stdDeviation="5.5"/><feComposite in="shadowBlurOuter1" in2="SourceAlpha" operator="out" result="shadowBlurOuter1"/><feColorMatrix in="shadowBlurOuter1" values="0 0 0 0 0 0 0 0 0 0 0 0 0 0 0 0 0 0 0.02 0"/></filter><filter id="ah" x="-14.2%" y="-9.8%" width="128.4%" height="128.2%"><feOffset dy="6" in="SourceAlpha" result="shadowOffsetOuter1"/><feGaussianBlur in="shadowOffsetOuter1" result="shadowBlurOuter1" stdDeviation="5.5"/><feComposite in="shadowBlurOuter1" in2="SourceAlpha" operator="out" result="shadowBlurOuter1"/><feColorMatrix in="shadowBlurOuter1" values="0 0 0 0 0 0 0 0 0 0 0 0 0 0 0 0 0 0 0.02 0"/></filter><filter id="ak" x="-64.2%" y="-36.2%" width="228.3%" height="227.5%"><feOffset dy="38" in="SourceAlpha" result="shadowOffsetOuter1"/><feGaussianBlur in="shadowOffsetOuter1" result="shadowBlurOuter1" stdDeviation="23"/><feComposite in="shadowBlurOuter1" in2="SourceAlpha" operator="out" result="shadowBlurOuter1"/><feColorMatrix in="shadowBlurOuter1" values="0 0 0 0 0 0 0 0 0 0 0 0 0 0 0 0 0 0 0.15 0"/></filter><filter id="am" x="-14.2%" y="-9.8%" width="128.4%" height="128.2%"><feOffset dy="6" in="SourceAlpha" result="shadowOffsetOuter1"/><feGaussianBlur in="shadowOffsetOuter1" result="shadowBlurOuter1" stdDeviation="5.5"/><feComposite in="shadowBlurOuter1" in2="SourceAlpha" operator="out" result="shadowBlurOuter1"/><feColorMatrix in="shadowBlurOuter1" values="0 0 0 0 0 0 0 0 0 0 0 0 0 0 0 0 0 0 0.02 0"/></filter><filter id="ap" x="-14.2%" y="-9.8%" width="128.4%" height="128.2%"><feOffset dy="6" in="SourceAlpha" result="shadowOffsetOuter1"/><feGaussianBlur in="shadowOffsetOuter1" result="shadowBlurOuter1" stdDeviation="5.5"/><feComposite in="shadowBlurOuter1" in2="SourceAlpha" operator="out" result="shadowBlurOuter1"/><feColorMatrix in="shadowBlurOuter1" values="0 0 0 0 0 0 0 0 0 0 0 0 0 0 0 0 0 0 0.02 0"/></filter><filter id="ar" x="-14.2%" y="-9.8%" width="128.4%" height="128.2%"><feOffset dy="6" in="SourceAlpha" result="shadowOffsetOuter1"/><feGaussianBlur in="shadowOffsetOuter1" result="shadowBlurOuter1" stdDeviation="5.5"/><feComposite in="shadowBlurOuter1" in2="SourceAlpha" operator="out" result="shadowBlurOuter1"/><feColorMatrix in="shadowBlurOuter1" values="0 0 0 0 0 0 0 0 0 0 0 0 0 0 0 0 0 0 0.02 0"/></filter><filter id="au" x="-11.4%" y="-103.5%" width="122.8%" height="487.6%"><feOffset dy="31" in="SourceAlpha" result="shadowOffsetOuter1"/><feGaussianBlur in="shadowOffsetOuter1" result="shadowBlurOuter1" stdDeviation="17"/><feComposite in="shadowBlurOuter1" in2="SourceAlpha" operator="out" result="shadowBlurOuter1"/><feColorMatrix in="shadowBlurOuter1" values="0 0 0 0 0 0 0 0 0 0 0 0 0 0 0 0 0 0 0.07 0"/></filter><filter id="aY" x="-59.5%" y="-33.8%" width="196.9%" height="196.3%"><feOffset dx="-16" dy="21" in="SourceAlpha" result="shadowOffsetOuter1"/><feGaussianBlur in="shadowOffsetOuter1" result="shadowBlurOuter1" stdDeviation="20"/><feComposite in="shadowBlurOuter1" in2="SourceAlpha" operator="out" result="shadowBlurOuter1"/><feColorMatrix in="shadowBlurOuter1" values="0 0 0 0 0 0 0 0 0 0 0 0 0 0 0 0 0 0 0.08 0"/></filter><filter id="bb" x="-12.1%" y="-7.8%" width="124.2%" height="123.2%"><feMorphology in="SourceAlpha" operator="dilate" radius="1.02" result="shadowSpreadOuter1"/><feOffset dy="1" in="shadowSpreadOuter1" result="shadowOffsetOuter1"/><feGaussianBlur in="shadowOffsetOuter1" result="shadowBlurOuter1" stdDeviation=".5"/><feComposite in="shadowBlurOuter1" in2="SourceAlpha" operator="out" result="shadowBlurOuter1"/><feColorMatrix in="shadowBlurOuter1" values="0 0 0 0 0 0 0 0 0 0 0 0 0 0 0 0 0 0 0.07 0"/></filter><rect id="W" x="34.678" y="84.353" width="23.961" height="3.622" rx="1.811"/><rect id="ac" x="0" y="0" width="137.14" height="138.08" rx="5.174"/><rect id="af" x="0" y="0" width="137.14" height="138.08" rx="5.174"/><rect id="ai" x="0" y="0" width="137.14" height="138.08" rx="5.174"/><rect id="al" x="0" y="0" width="137.14" height="138.08" rx="5.174"/><rect id="an" x="0" y="0" width="137.14" height="138.08" rx="5.174"/><rect id="aq" x="0" y="0" width="137.14" height="138.08" rx="5.174"/><rect id="as" x="0" y="0" width="137.14" height="138.08" rx="5.174"/><rect id="aZ" x="0" y="0" width="145.45" height="146.44" rx="5.487"/><ellipse id="aa" cx="21.009" cy="86.618" rx="4.139" ry="4.14"/></defs><g fill="none" fill-rule="evenodd"><g opacity=".283"><g transform="scale(-1 1) rotate(8 -598.836 -1183.835)"><mask id="c" fill="#fff"><use xlink:href="#a"/></mask><path d="M152.2.636C53.509 36.88.19 116.836 0 171.306v.569c.086 25.093 11.531 44.683 35.104 51.94 103.28 31.812 152.33-44.641 152.4-97.697v-.134c0-.667-.006-1.336-.024-1.997C185.993 61.745 152.2.637 152.2.637z" fill="url(#b)" mask="url(#c)"/></g><g transform="scale(-1 1) rotate(8 -745.74 -1027.282)" fill="#fff"><mask id="e"><use xlink:href="#d"/></mask><path d="M97.47 22.618c-5.476 7.714-10.615 15.666-15.538 23.743A507.317 507.317 0 0055.249 96.42c-15.94 34.334-28.146 70.339-37.218 107.08-8.67 36.836-14.33 74.394-16.514 112.16C-.783 353.424-.11 391.342 3.296 429l1.035-.092.3-14.22c.05-4.727-.095-9.437.06-14.158l.434-14.14c.137-4.707.253-9.401.622-14.101.508-9.395.72-18.772 1.6-28.116.392-4.674.663-9.345.972-14.015l1.354-13.97c.434-4.659.868-9.309 1.535-13.938l1.627-13.908c.544-4.635 1.326-9.24 1.977-13.854.696-4.617 1.306-9.237 2.201-13.813 2.942-18.41 6.72-36.654 11.112-54.733 4.248-18.123 9.438-36.003 15.208-53.692 5.568-17.766 12.293-35.14 19.36-52.395 7.255-17.171 15.16-34.111 23.947-50.642C95.111 32.482 104.903 16.42 115.694.927l-.761-.705c-6.303 7.116-11.987 14.672-17.462 22.395" mask="url(#e)" opacity=".303"/></g><g transform="scale(-1 1) rotate(8 -1627.189 -612.556)" fill="#fff"><mask id="g"><use xlink:href="#f"/></mask><path d="M46.787.437c-3.283.241-6.5.792-9.75 1.211-3.195.68-6.4 1.3-9.55 2.127-3.125.947-6.272 1.748-9.308 2.99C12.064 9.034 6.098 11.813.628 15.859l.202.64c12.315-3.392 24.835-6.13 37.439-8.274 12.57-2.273 25.313-3.95 38.115-3.835l.018-.668C70.014 1.249 63.294.383 56.675.173a53.873 53.873 0 00-2.256-.046c-2.553 0-5.094.164-7.632.31" mask="url(#g)" opacity=".303"/></g><g transform="scale(-1 1) rotate(8 -1296.269 -497.178)" fill="#fff"><mask id="i"><use xlink:href="#h"/></mask><path d="M44.675.816a74.688 74.688 0 00-16.31 3.27C23.109 5.752 18.08 8.03 13.289 10.764 8.503 13.513 3.933 16.74.019 21.155l.293.625c4.954-2.066 9.97-4.01 14.987-5.917a320.981 320.981 0 0115.23-5.253c5.109-1.659 10.26-3.188 15.465-4.5 5.224-1.237 10.48-2.336 15.798-3.093l-.077-.68C57.678 1.071 53.577.618 49.529.618c-1.627 0-3.247.073-4.852.197" mask="url(#i)" opacity=".303"/></g><g transform="scale(-1 1) rotate(8 -1375.735 -995.373)"><mask id="l" fill="#fff"><use xlink:href="#j"/></mask><path d="M.16 1.273c2.244 3.438 3.424 6.122 4.5 8.908 1.105 2.712 1.937 5.58 2.947 8.476.99 2.903 2.055 5.918 3.304 9.045 1.314 3.124 2.732 6.324 4.96 9.744h.614c.074-3.532-.198-7.049-.715-10.537-.502-3.488-1.251-6.955-2.376-10.311-1.192-3.32-2.638-6.609-4.814-9.424C6.468 4.329 3.66 1.98.383.689l-.224.584z" fill="url(#k)" mask="url(#l)"/></g><g transform="scale(-1 1) rotate(8 -1124.256 -729.363)"><mask id="o" fill="#fff"><use xlink:href="#m"/></mask><path d="M.125.944c1.167 2.888 1.458 5.092 1.782 7.348.306 2.228.408 4.515.615 6.881.186 2.354.519 4.792.906 7.34.402 2.55.963 5.174 2.088 8.077l.474.1a51.408 51.408 0 001.356-15.924C7.094 12.1 6.578 9.419 5.48 6.917 4.436 4.42 2.759 2.091.398.562L.125.944z" fill="url(#n)" mask="url(#o)"/></g></g><g transform="matrix(-1 0 0 1 102.71 243.575)"><mask id="r" fill="#fff"><use xlink:href="#p"/></mask><path d="M95.903.363C23.309 1.913-20.037 60.085 9.822 81.722c41.814 30.307 75.639 2.668 83.123-21.134 3.687-11.724 4.798-24.227 4.847-34.786v-1.473C97.728 10.504 95.902.362 95.902.362z" fill="url(#q)" mask="url(#r)"/></g><g transform="matrix(-1 0 0 1 124 249.39)" fill="#fff"><mask id="t"><use xlink:href="#s"/></mask><path d="M86.206 15.591l-5.092 4.31-4.853 4.576c-3.305 2.983-6.29 6.284-9.334 9.526-12.048 13.102-22.351 27.723-31.324 43.083l-6.289 11.776c-.513.985-1.068 1.95-1.55 2.95l-1.368 3.045-2.737 6.088-2.735 6.084c-.45 1.02-.935 2.02-1.351 3.05l-1.156 3.13-4.633 12.511c-1.668 4.13-2.799 8.439-4.078 12.697L5.93 151.211c-2.125 8.63-3.943 17.341-5.93 26.006l.48.093c2.92-8.47 5.14-17.04 7.935-25.434l4.432-12.487c1.498-4.147 2.73-8.376 4.556-12.39 1.696-4.063 3.378-8.118 4.976-12.204l1.216-3.056c.433-1.006.937-1.981 1.401-2.973l2.843-5.93c.962-1.968 1.866-3.96 2.786-5.95l1.37-2.98c.484-.979 1.04-1.923 1.554-2.886l6.287-11.509c.971-1.963 2.187-3.777 3.32-5.644l3.434-5.576c1.166-1.845 2.246-3.746 3.48-5.547 1.259-1.781 2.544-3.54 3.77-5.35L57.556 52c1.206-1.826 2.657-3.458 3.977-5.196 2.743-3.392 5.29-6.966 8.23-10.195l4.295-4.958c1.388-1.702 3.017-3.16 4.484-4.785l4.539-4.762 4.773-4.518A152.266 152.266 0 01108.383.948l-.21-.44c-7.898 4.161-15.094 9.448-21.967 15.083" mask="url(#t)" opacity=".341"/></g><g opacity=".125"><g transform="rotate(23 570.631 1825.876)"><mask id="w" fill="#fff"><use xlink:href="#u"/></mask><path d="M199.96.831C70.3 48.167.24 152.601 0 223.731v.743c.113 32.773 15.15 58.357 46.12 67.835 135.69 41.547 200.14-58.303 200.23-127.6v-.175c0-.871-.008-1.746-.031-2.609-1.954-81.29-46.354-161.1-46.354-161.1z" fill="url(#v)" mask="url(#w)"/></g><use fill="silver" xlink:href="#x" transform="rotate(23 494.385 1889.064)"/><g transform="rotate(23 70.368 2023.23)"><mask id="z" fill="#fff"><use xlink:href="#y"/></mask><path d="M61.978.566c-4.349.312-8.611 1.025-12.917 1.567-4.23.88-8.477 1.683-12.649 2.752-4.14 1.226-8.308 2.262-12.331 3.87-8.1 2.935-16.003 6.53-23.25 11.768l.267.828c16.314-4.39 32.9-7.934 49.594-10.708 16.652-2.942 33.532-5.11 50.49-4.962l.024-.866C92.744 1.617 83.842.495 75.074.225c-.999-.041-1.994-.06-2.988-.06-3.382 0-6.748.212-10.11.401" fill="#BEBEBE" mask="url(#z)"/></g><path d="M889.967 107.519a96.815 96.815 0 00-21.3-4.358c-7.178-.663-14.398-.466-21.57.405-7.171.893-14.329 2.475-21.311 5.836l.031.908c7.021.022 14.055.223 21.07.471 7.021.293 14.03.753 21.02 1.4 6.999.595 13.981 1.37 20.916 2.435 6.919 1.165 13.806 2.514 20.593 4.31l.257-.865c-4.204-3.594-8.901-6.238-13.77-8.305a81.776 81.776 0 00-5.937-2.237" fill="#BEBEBE"/><g transform="rotate(23 205.376 1865.966)"><mask id="C" fill="#fff"><use xlink:href="#A"/></mask><path d="M.206 1.675C3.111 6.2 4.637 9.73 6.03 13.395c1.43 3.57 2.507 7.344 3.815 11.152 1.281 3.82 2.66 7.788 4.275 11.902 1.701 4.11 3.536 8.321 6.418 12.821h.795c.097-4.647-.256-9.275-.925-13.864-.65-4.589-1.62-9.151-3.075-13.567-1.542-4.369-3.414-8.695-6.229-12.4C8.37 5.696 4.738 2.606.496.906l-.29.769z" fill="url(#B)" mask="url(#C)"/></g><path d="M806.84 41.282c-.15 4.087-.955 6.912-1.748 9.817-.798 2.861-1.863 5.696-2.848 8.677-1.002 2.957-1.88 6.088-2.75 9.379-.856 3.302-1.566 6.769-1.772 10.853l.493.354a71.81 71.81 0 009.79-18.725c1.088-3.37 1.88-6.885 1.909-10.466.09-3.552-.636-7.206-2.563-10.22l-.512.332z" fill="#BEBEBE"/></g><g transform="rotate(23 -29.255 2126.057)"><mask id="F" fill="#fff"><use xlink:href="#D"/></mask><path d="M96.341.395C33.87 23.225.116 73.591 0 107.895v.358C.054 124.06 7.3 136.4 22.221 140.97c65.378 20.038 96.428-28.119 96.469-61.539v-.084c0-.42-.004-.842-.015-1.258C117.734 38.883 96.342.393 96.342.393z" fill="url(#E)" mask="url(#F)"/></g><g transform="rotate(23 -64.402 2157.295)"><mask id="I" fill="#fff"><use xlink:href="#G"/></mask><path d="M61.444 14.746c-3.452 4.862-6.692 9.874-9.795 14.964a319.855 319.855 0 00-16.821 31.551C24.78 82.9 17.085 105.593 11.366 128.748 5.9 151.964 2.332 175.636.956 199.441c-1.45 23.801-1.026 47.7 1.121 71.434l.653-.058.19-8.963c.031-2.979-.06-5.947.037-8.923l.273-8.912c.087-2.966.16-5.925.392-8.887.32-5.921.454-11.831 1.009-17.721.248-2.946.418-5.89.613-8.833l.853-8.805c.274-2.936.548-5.867.968-8.785l1.025-8.765c.343-2.921.837-5.824 1.247-8.732.439-2.91.823-5.822 1.388-8.706 1.854-11.602 4.235-23.102 7.005-34.496 2.677-11.422 5.95-22.69 9.587-33.84 3.51-11.198 7.75-22.148 12.204-33.022 4.573-10.822 9.557-21.499 15.096-31.918 5.34-10.545 11.512-20.668 18.315-30.433l-.48-.444c-3.973 4.485-7.557 9.247-11.008 14.115" fill="url(#H)" mask="url(#I)" opacity=".121"/></g><g transform="rotate(23 -269.846 2223.628)"><mask id="K" fill="#fff"><use xlink:href="#J"/></mask><path d="M29.548.8c-2.074.158-4.106.517-6.16.791-2.017.445-4.042.85-6.031 1.39-1.975.618-3.962 1.142-5.88 1.953C7.614 6.416 3.845 8.231.39 10.874l.127.419c7.78-2.217 15.688-4.005 23.65-5.406 7.94-1.485 15.99-2.58 24.076-2.505l.011-.437C44.22 1.331 39.974.765 35.794.628c-.477-.021-.951-.03-1.426-.03-1.612 0-3.217.106-4.82.202" fill="url(#H)" mask="url(#K)" opacity=".121"/></g><g transform="rotate(23 -202.019 2256.622)"><mask id="M" fill="#fff"><use xlink:href="#L"/></mask><path d="M28.409.52A46.092 46.092 0 0018.198 2.6c-3.29 1.06-6.439 2.51-9.439 4.25-2.996 1.749-5.857 3.802-8.308 6.612l.184.398c3.101-1.314 6.242-2.552 9.382-3.765a198.581 198.581 0 019.535-3.343c3.199-1.056 6.424-2.029 9.682-2.863 3.27-.788 6.56-1.487 9.89-1.969l-.048-.433C36.55.682 33.982.394 31.446.394c-1.017 0-2.032.047-3.037.125" fill="url(#H)" mask="url(#M)" opacity=".121"/></g><g transform="rotate(23 -205.954 2145.452)"><mask id="O" fill="#fff"><use xlink:href="#N"/></mask><path d="M.114.804c1.466 2.195 2.237 3.91 2.94 5.689.722 1.732 1.265 3.564 1.925 5.413.647 1.854 1.343 3.78 2.158 5.777.86 1.995 1.785 4.038 3.24 6.223h.402c.048-2.256-.13-4.502-.467-6.73-.328-2.227-.818-4.442-1.553-6.585-.778-2.12-1.723-4.22-3.144-6.019C4.235 2.756 2.4 1.256.26.431L.114.804z" fill="url(#H)" mask="url(#O)" opacity=".121"/></g><g transform="rotate(23 -154.843 2213.435)"><mask id="Q" fill="#fff"><use xlink:href="#P"/></mask><path d="M.078 1.116C.808 2.99.99 4.42 1.192 5.886c.191 1.445.255 2.93.384 4.466.117 1.528.325 3.11.567 4.764.25 1.656.601 3.358 1.305 5.243l.296.065a34.613 34.613 0 00.847-10.337c-.157-1.73-.48-3.47-1.166-5.094C2.773 3.37 1.725 1.86.25.868l-.17.247z" fill="url(#H)" mask="url(#Q)" opacity=".157"/></g><g transform="translate(86 42)"><rect width="699.58" height="449.69" rx="5.175" fill="#fff"/><path d="M2.587 35.616h694.41a2.587 2.587 0 012.587 2.587v409.34a2.587 2.587 0 01-2.587 2.587H2.587A2.587 2.587 0 010 447.543V38.203a2.587 2.587 0 012.587-2.587z" fill="#F5F5F5"/><use fill="#000" filter="url(#R)" xlink:href="#S"/><use fill="#4A4E51" xlink:href="#S"/><use fill="url(#T)" xlink:href="#S"/><path d="M85.103 449.87V.26H5A4.741 4.741 0 00.259 5.001v442.54a2.328 2.328 0 002.328 2.328h82.516z" fill="url(#U)" stroke="#979797" stroke-linejoin="square" stroke-opacity=".13" stroke-width=".517"/><g transform="translate(16.871 15.933)" fill-rule="nonzero"><ellipse cx="3.297" cy="3.363" rx="3.297" ry="3.363" fill="#E85748"/><ellipse cx="15.774" cy="3.363" rx="3.297" ry="3.363" fill="#FFD112"/><ellipse cx="27.745" cy="3.363" rx="3.297" ry="3.363" fill="#A7E512"/></g><g fill-rule="nonzero"><use fill="#000" filter="url(#V)" xlink:href="#W"/><use fill="#FFF" xlink:href="#W"/></g><rect x="34.678" y="105.91" width="30.169" height="3.622" rx="1.811" fill="#fff" fill-opacity=".18" fill-rule="nonzero"/><rect x="619.93" y="56.427" width="39.319" height="3.622" rx="1.811" fill="#ddd" fill-rule="nonzero"/><path d="M671.31 56.427h10.347a1.81 1.81 0 010 3.621H671.31a1.81 1.81 0 010-3.621z" fill="#ddd" fill-rule="nonzero"/><ellipse cx="585.13" cy="58.319" rx="6.367" ry="6.467" fill="url(#X)" fill-rule="nonzero" opacity=".47"/><ellipse cx="605.71" cy="58.319" rx="6.367" ry="6.467" fill="url(#Y)" fill-rule="nonzero" opacity=".548"/><g fill-rule="nonzero"><use fill="#000" filter="url(#Z)" xlink:href="#aa"/><use fill="#FFF" xlink:href="#aa"/></g><ellipse cx="20.914" cy="107.84" rx="4.139" ry="4.14" fill="#fff" fill-opacity=".18" fill-rule="nonzero"/><ellipse cx="21.009" cy="129.73" rx="4.139" ry="4.14" fill="#fff" fill-opacity=".18" fill-rule="nonzero"/><ellipse cx="21.009" cy="151.29" rx="4.139" ry="4.14" fill="#C4A9FF" fill-rule="nonzero"/><ellipse cx="21.009" cy="173.78" rx="4.139" ry="4.14" fill="#C4A9FF" fill-rule="nonzero"/><ellipse cx="21.009" cy="195.34" rx="4.139" ry="4.14" fill="#C4A9FF" fill-rule="nonzero"/><ellipse cx="21.009" cy="216.9" rx="4.139" ry="4.14" fill="#9370F2" fill-rule="nonzero"/><ellipse cx="21.009" cy="238.45" rx="4.139" ry="4.14" fill="#9370F2" fill-rule="nonzero"/><ellipse cx="21.009" cy="260.01" rx="4.139" ry="4.14" fill="#8B6BEF" fill-rule="nonzero"/><rect x="34.678" y="127.47" width="13.725" height="3.622" rx="1.811" fill="#fff" fill-opacity=".18" fill-rule="nonzero"/><rect x="34.678" y="149.96" width="26.031" height="3.622" rx="1.811" fill="#C4A9FF" fill-rule="nonzero"/><rect x="34.678" y="171.52" width="22.927" height="3.622" rx="1.811" fill="#C4A9FF" fill-rule="nonzero"/><rect x="34.678" y="193.07" width="29.134" height="3.622" rx="1.811" fill="#C4A9FF" fill-rule="nonzero"/><rect x="34.678" y="214.63" width="22.927" height="3.622" rx="1.811" fill="#9370F2" fill-rule="nonzero"/><rect x="34.678" y="236.19" width="34.308" height="3.622" rx="1.811" fill="#9370F2" fill-rule="nonzero"/><rect x="34.678" y="257.74" width="28.1" height="3.622" rx="1.811" fill="#8B6BEF" fill-rule="nonzero"/><g transform="translate(100.65 136.49)"><use fill="#000" filter="url(#ab)" xlink:href="#ac"/><rect x=".25" y=".25" width="136.64" height="137.58" rx="5.174" fill="#fff" stroke="#979797" stroke-linejoin="square" stroke-opacity=".13" stroke-width=".5"/><text fill="#000" font-family="Lato-Medium, Lato" font-size="12.2" font-weight="400" letter-spacing=".111"><tspan x="16.776" y="27.251">Design project</tspan></text><path d="M18.586 54.139h35.945a1.81 1.81 0 010 3.621H18.586a1.81 1.81 0 010-3.621z" fill="#E4E5EC" opacity=".801"/><path d="M18.586 45.752h17.972a1.81 1.81 0 010 3.621H18.586a1.81 1.81 0 010-3.621z" fill="#F39C12"/><path d="M17.919 97.603h94.553a1.144 1.144 0 110 2.288H17.919a1.144 1.144 0 110-2.288z" fill="#E4E5EC"/><path d="M17.919 97.603h28.214a1.144 1.144 0 110 2.288H17.919a1.144 1.144 0 110-2.288z" fill="#00A2DA"/><ellipse cx="21.438" cy="80.828" rx="3.9" ry="3.813" fill="#E4E5EC" fill-rule="nonzero"/><ellipse cx="48.126" cy="80.828" rx="3.9" ry="3.813" fill="#E4E5EC" fill-rule="nonzero"/><ellipse cx="34.401" cy="80.828" rx="3.9" ry="3.813" fill="url(#ad)" fill-rule="nonzero"/><ellipse cx="61.089" cy="80.828" rx="3.9" ry="3.813" fill="#E4E5EC" fill-rule="nonzero"/><ellipse cx="74.052" cy="80.828" rx="3.9" ry="3.813" fill="#E4E5EC" fill-rule="nonzero"/><circle cx="24.782" cy="118.57" r="8.007" fill="#0F53FF" fill-rule="nonzero" opacity=".1"/><circle cx="44.608" cy="118.57" r="8.007" fill="#FE4A5A" fill-rule="nonzero" opacity=".1"/><circle cx="65.196" cy="118.57" r="8.007" fill="#7101E3" fill-rule="nonzero" opacity=".1"/></g><g transform="translate(100.65 286.71)"><use fill="#000" filter="url(#ae)" xlink:href="#af"/><rect x=".25" y=".25" width="136.64" height="137.58" rx="5.174" fill="#fff" stroke="#979797" stroke-linejoin="square" stroke-opacity=".13" stroke-width=".5"/><text fill="#000" font-family="Lato-Medium, Lato" font-size="12.2" font-weight="400" letter-spacing=".111"><tspan x="16.776" y="27.251">Development</tspan></text><path d="M18.586 54.139h35.945a1.81 1.81 0 010 3.621H18.586a1.81 1.81 0 010-3.621z" fill="#E4E5EC" opacity=".801"/><path d="M18.586 45.752h17.972a1.81 1.81 0 010 3.621H18.586a1.81 1.81 0 010-3.621z" fill="#4055AB"/><path d="M17.919 97.603h94.553a1.144 1.144 0 110 2.288H17.919a1.144 1.144 0 110-2.288z" fill="#E4E5EC"/><path d="M17.919 97.603h51.089a1.144 1.144 0 110 2.288H17.919a1.144 1.144 0 110-2.288z" fill="#00A2DA"/><ellipse cx="21.438" cy="80.828" rx="3.9" ry="3.813" fill="#E4E5EC" fill-rule="nonzero"/><ellipse cx="48.126" cy="80.828" rx="3.9" ry="3.813" fill="#E4E5EC" fill-rule="nonzero"/><ellipse cx="34.401" cy="80.828" rx="3.9" ry="3.813" fill="#E4E5EC" fill-rule="nonzero"/><ellipse cx="61.089" cy="80.828" rx="3.9" ry="3.813" fill="#E4E5EC" fill-rule="nonzero"/><ellipse cx="74.052" cy="80.828" rx="3.9" ry="3.813" fill="url(#ag)" fill-rule="nonzero"/><circle cx="24.782" cy="118.57" r="8.007" fill="#7384E6" fill-rule="nonzero" opacity=".1"/><circle cx="44.608" cy="118.57" r="8.007" fill="#FFBD4A" fill-rule="nonzero" opacity=".1"/><circle cx="65.196" cy="118.57" r="8.007" fill="#4EA1FF" fill-rule="nonzero" opacity=".1"/></g><g transform="translate(249.35 136.49)"><use fill="#000" filter="url(#ah)" xlink:href="#ai"/><rect x=".25" y=".25" width="136.64" height="137.58" rx="5.174" fill="#fff" stroke="#979797" stroke-linejoin="square" stroke-opacity=".13" stroke-width=".5"/><text fill="#000" font-family="Lato-Medium, Lato" font-size="12.2" font-weight="400" letter-spacing=".111"><tspan x="16.776" y="27.251">Content</tspan></text><path d="M18.586 54.139h35.945a1.81 1.81 0 010 3.621H18.586a1.81 1.81 0 010-3.621z" fill="#E4E5EC" opacity=".801"/><path d="M18.586 45.752h17.972a1.81 1.81 0 010 3.621H18.586a1.81 1.81 0 010-3.621z" fill="#1ABC9C"/><path d="M17.919 97.603h94.553a1.144 1.144 0 110 2.288H17.919a1.144 1.144 0 110-2.288z" fill="#E4E5EC"/><path d="M17.919 97.603h73.965a1.144 1.144 0 110 2.288H17.919a1.144 1.144 0 110-2.288z" fill="#00A2DA"/><ellipse cx="21.438" cy="80.828" rx="3.9" ry="3.813" fill="#E4E5EC" fill-rule="nonzero"/><ellipse cx="48.126" cy="80.828" rx="3.9" ry="3.813" fill="#E4E5EC" fill-rule="nonzero"/><ellipse cx="34.401" cy="80.828" rx="3.9" ry="3.813" fill="#E4E5EC" fill-rule="nonzero"/><ellipse cx="61.089" cy="80.828" rx="3.9" ry="3.813" fill="url(#aj)" fill-rule="nonzero"/><ellipse cx="74.052" cy="80.828" rx="3.9" ry="3.813" fill="#E4E5EC" fill-rule="nonzero"/><circle cx="24.782" cy="118.57" r="8.007" fill="#FF2C5E" fill-rule="nonzero" opacity=".1"/><circle cx="44.608" cy="118.57" r="8.007" fill="#00AEFF" fill-rule="nonzero" opacity=".1"/><circle cx="65.196" cy="118.57" r="8.007" fill="#FFBD0E" fill-rule="nonzero" opacity=".1"/></g><g transform="translate(249.35 286.71)"><use fill="#000" filter="url(#ak)" xlink:href="#al"/><rect x=".259" y=".259" width="136.62" height="137.56" rx="5.174" fill="#fff" stroke="#979797" stroke-linejoin="square" stroke-opacity=".13" stroke-width=".517"/><text fill="#000" font-family="Lato-Medium, Lato" font-size="12.2" font-weight="400" letter-spacing=".111"><tspan x="16.776" y="27.251">Support</tspan></text><path d="M18.586 54.139h35.945a1.81 1.81 0 010 3.621H18.586a1.81 1.81 0 010-3.621z" fill="#E4E5EC" opacity=".801"/><path d="M18.586 45.752h17.972a1.81 1.81 0 010 3.621H18.586a1.81 1.81 0 010-3.621z" fill="#5DA9D6"/><path d="M17.919 97.603h94.553a1.144 1.144 0 110 2.288H17.919a1.144 1.144 0 110-2.288z" fill="#E4E5EC"/><path d="M17.919 97.603h51.089a1.144 1.144 0 110 2.288H17.919a1.144 1.144 0 110-2.288z" fill="#00A2DA"/><ellipse cx="21.438" cy="80.828" rx="3.9" ry="3.813" fill="#E4E5EC" fill-rule="nonzero"/><ellipse cx="48.126" cy="80.828" rx="3.9" ry="3.813" fill="#E4E5EC" fill-rule="nonzero"/><ellipse cx="34.401" cy="80.828" rx="3.9" ry="3.813" fill="#E4E5EC" fill-rule="nonzero"/><ellipse cx="61.089" cy="80.828" rx="3.9" ry="3.813" fill="#E4E5EC" fill-rule="nonzero"/><ellipse cx="74.052" cy="80.828" rx="3.9" ry="3.813" fill="#E4E5EC" fill-rule="nonzero"/><circle cx="24.782" cy="118.57" r="8.007" fill="#9B59B6" fill-rule="nonzero" opacity=".1"/><circle cx="44.608" cy="118.57" r="8.007" fill="#613F95" fill-rule="nonzero" opacity=".1"/><circle cx="65.196" cy="118.57" r="8.007" fill="#95A5A6" fill-rule="nonzero" opacity=".1"/></g><g transform="translate(398.04 136.49)"><use fill="#000" filter="url(#am)" xlink:href="#an"/><rect x=".25" y=".25" width="136.64" height="137.58" rx="5.174" fill="#fff" stroke="#979797" stroke-linejoin="square" stroke-opacity=".13" stroke-width=".5"/><text fill="#000" font-family="Lato-Medium, Lato" font-size="12.2" font-weight="400" letter-spacing=".111"><tspan x="16.776" y="27.251">Marketing</tspan></text><path d="M18.586 54.139h35.945a1.81 1.81 0 010 3.621H18.586a1.81 1.81 0 010-3.621z" fill="#E4E5EC" opacity=".801"/><path d="M18.586 45.752h17.972a1.81 1.81 0 010 3.621H18.586a1.81 1.81 0 010-3.621z" fill="#9B59B6"/><path d="M17.919 97.603h94.553a1.144 1.144 0 110 2.288H17.919a1.144 1.144 0 110-2.288z" fill="#E4E5EC"/><path d="M17.919 97.603h28.214a1.144 1.144 0 110 2.288H17.919a1.144 1.144 0 110-2.288z" fill="#00A2DA"/><ellipse cx="21.438" cy="80.828" rx="3.9" ry="3.813" fill="#E4E5EC" fill-rule="nonzero"/><ellipse cx="48.126" cy="80.828" rx="3.9" ry="3.813" fill="#E4E5EC" fill-rule="nonzero"/><ellipse cx="34.401" cy="80.828" rx="3.9" ry="3.813" fill="#E4E5EC" fill-rule="nonzero"/><ellipse cx="61.089" cy="80.828" rx="3.9" ry="3.813" fill="#E4E5EC" fill-rule="nonzero"/><ellipse cx="74.052" cy="80.828" rx="3.9" ry="3.813" fill="url(#ao)" fill-rule="nonzero"/><circle cx="24.782" cy="118.57" r="8.007" fill="#1ABC9C" fill-rule="nonzero" opacity=".1"/><circle cx="44.608" cy="118.57" r="8.007" fill="#A7E512" fill-rule="nonzero" opacity=".1"/><circle cx="65.196" cy="118.57" r="8.007" fill="#9B59B6" fill-rule="nonzero" opacity=".1"/></g><g transform="translate(398.04 286.71)"><use fill="#000" filter="url(#ap)" xlink:href="#aq"/><rect x=".25" y=".25" width="136.64" height="137.58" rx="5.174" fill="#fff" stroke="#979797" stroke-linejoin="square" stroke-opacity=".13" stroke-width=".5"/><text fill="#000" font-family="Lato-Medium, Lato" font-size="12.2" font-weight="400" letter-spacing=".111"><tspan x="16.776" y="27.251">Sales</tspan></text><path d="M18.586 54.139h35.945a1.81 1.81 0 010 3.621H18.586a1.81 1.81 0 010-3.621z" fill="#E4E5EC" opacity=".801"/><path d="M18.586 45.752h17.972a1.81 1.81 0 010 3.621H18.586a1.81 1.81 0 010-3.621z" fill="#E9485E"/><path d="M17.919 97.603h94.553a1.144 1.144 0 110 2.288H17.919a1.144 1.144 0 110-2.288z" fill="#E4E5EC"/><path d="M17.919 97.603h20.588a1.144 1.144 0 110 2.288H17.919a1.144 1.144 0 110-2.288z" fill="#00A2DA"/><ellipse cx="21.438" cy="80.828" rx="3.9" ry="3.813" fill="#E4E5EC" fill-rule="nonzero"/><ellipse cx="48.126" cy="80.828" rx="3.9" ry="3.813" fill="#E4E5EC" fill-rule="nonzero"/><ellipse cx="34.401" cy="80.828" rx="3.9" ry="3.813" fill="#E4E5EC" fill-rule="nonzero"/><ellipse cx="61.089" cy="80.828" rx="3.9" ry="3.813" fill="#E4E5EC" fill-rule="nonzero"/><ellipse cx="74.052" cy="80.828" rx="3.9" ry="3.813" fill="#E4E5EC" fill-rule="nonzero"/><circle cx="24.782" cy="118.57" r="8.007" fill="#FF6D4A" fill-rule="nonzero" opacity=".1"/><circle cx="44.608" cy="118.57" r="8.007" fill="#613F95" fill-rule="nonzero" opacity=".1"/><circle cx="65.196" cy="118.57" r="8.007" fill="#3498DB" fill-rule="nonzero" opacity=".1"/></g><g transform="translate(546.73 136.49)"><use fill="#000" filter="url(#ar)" xlink:href="#as"/><rect x=".25" y=".25" width="136.64" height="137.58" rx="5.174" fill="#fff" stroke="#979797" stroke-linejoin="square" stroke-opacity=".13" stroke-width=".5"/><text fill="#000" font-family="Lato-Medium, Lato" font-size="12.2" font-weight="400" letter-spacing=".111"><tspan x="16.776" y="27.251">Sample Project</tspan></text><path d="M18.586 54.139h35.945a1.81 1.81 0 010 3.621H18.586a1.81 1.81 0 010-3.621z" fill="#E4E5EC" opacity=".801"/><path d="M18.586 45.752h17.972a1.81 1.81 0 010 3.621H18.586a1.81 1.81 0 010-3.621z" fill="#1A9ED4"/><path d="M17.919 97.603h94.553a1.144 1.144 0 110 2.288H17.919a1.144 1.144 0 110-2.288z" fill="#E4E5EC"/><path d="M17.919 97.603h81.59a1.144 1.144 0 110 2.288h-81.59a1.144 1.144 0 110-2.288z" fill="#00A2DA"/><ellipse cx="21.438" cy="80.828" rx="3.9" ry="3.813" fill="url(#at)" fill-rule="nonzero"/><ellipse cx="48.126" cy="80.828" rx="3.9" ry="3.813" fill="#E4E5EC" fill-rule="nonzero"/><ellipse cx="34.401" cy="80.828" rx="3.9" ry="3.813" fill="#E4E5EC" fill-rule="nonzero"/><ellipse cx="61.089" cy="80.828" rx="3.9" ry="3.813" fill="#E4E5EC" fill-rule="nonzero"/><ellipse cx="74.052" cy="80.828" rx="3.9" ry="3.813" fill="#E4E5EC" fill-rule="nonzero"/><circle cx="24.782" cy="118.57" r="8.007" fill="#008AFB" fill-rule="nonzero" opacity=".1"/><circle cx="44.608" cy="118.57" r="8.007" fill="#00C828" fill-rule="nonzero" opacity=".1"/><circle cx="65.196" cy="118.57" r="8.007" fill="#FF2C5E" fill-rule="nonzero" opacity=".1"/></g><text fill="#000" font-family="Lato-Bold, Lato" font-size="13.725" font-weight="bold" letter-spacing=".125"><tspan x="100.654" y="67.377">Project Manager</tspan></text><path d="M223.82 51.089h38.352a4.21 4.21 0 014.21 4.21V66.9a4.21 4.21 0 01-4.21 4.21H223.82a4.21 4.21 0 01-4.21-4.21V55.298a4.21 4.21 0 014.21-4.209z" fill="#1A9ED4" opacity=".15"/><path d="M231.2 59.477h17.064a1.684 1.684 0 110 3.367H231.2a1.684 1.684 0 110-3.367z" fill="#1A9ED4"/><use fill="#000" filter="url(#au)" xlink:href="#av"/><path d="M104.47 87.187a3.554 3.554 0 00-3.554 3.554v26.688a3.554 3.554 0 003.554 3.554h575.71a3.554 3.554 0 003.554-3.554V90.74a3.554 3.554 0 00-3.554-3.554H104.47z" fill="#fff" stroke="#979797" stroke-linejoin="square" stroke-opacity=".13" stroke-width=".517"/><path d="M134.59 102.18h26.688a1.906 1.906 0 010 3.813H134.59a1.906 1.906 0 010-3.813zM201.69 102.18h26.688a1.906 1.906 0 010 3.813H201.69a1.906 1.906 0 010-3.813z" fill="#E4E5EC"/><path d="M116.67 119.72h49.564a.763.763 0 010 1.525H116.67a.763.763 0 010-1.525z" fill="#00A2DA"/><ellipse cx="121.57" cy="104.03" rx="4.139" ry="4.14" fill="#E74C3C" fill-rule="nonzero"/><ellipse cx="188.67" cy="104.03" rx="4.139" ry="4.14" fill="#00C5A2" fill-rule="nonzero"/><path d="M268.79 102.18h26.688a1.906 1.906 0 010 3.813H268.79a1.906 1.906 0 010-3.813z" fill="#E4E5EC"/><ellipse cx="255.77" cy="104.03" rx="4.139" ry="4.14" fill="#FE9528" fill-rule="nonzero"/><path d="M550.54 95.316h34.57v16.971h-34.57a2.288 2.288 0 01-2.288-2.288V97.604a2.288 2.288 0 012.288-2.287zM587.91 95.316h34.57a2.288 2.288 0 012.288 2.288v12.395a2.288 2.288 0 01-2.288 2.287h-34.57v-16.97z" fill="#F4F4F4"/><path d="M636.55 95.316h32.282a2.288 2.288 0 012.288 2.288v12.395a2.288 2.288 0 01-2.288 2.287H636.55a2.288 2.288 0 01-2.288-2.287V97.604a2.288 2.288 0 012.288-2.288z" fill="#E6F4F7"/><path d="M559.85 102.18h12.489a1.684 1.684 0 110 3.367H559.85a1.684 1.684 0 110-3.367zM599.5 102.18h10.964a1.684 1.684 0 110 3.367H599.5a1.684 1.684 0 110-3.367z" fill="#DFDFDF"/><path d="M645.86 102.18h13.252a1.684 1.684 0 110 3.367H645.86a1.684 1.684 0 110-3.367z" fill="#1A9ED4"/></g><g fill="#fff" opacity=".5"><path d="M446.343 268.276l-14.926-8.152c-1.36-.744-2.457-.15-2.45 1.324l.077 16.18c.007 1.473 1.117 2.073 2.481 1.335l14.812-8.008c1.363-.736 1.366-1.936.006-2.68z"/></g><g><path d="M.44.19C.291.128.15.064 0 0c.651.276 1.076 3.79 1.194 4.346.94 4.445 1.332 9 1.45 13.53.12 4.573-.425 8.815 1.754 13.056 1.783 3.473 4.945 6.352 8.993 6.95a11.75 11.75 0 003.127.028c.802-.097 1.79-.182 2.503-.558.887-.468 1.76-1.004 2.497-1.683.444-.409.792-1.009 1.106-1.514.7-1.124 1.227-2.35 1.623-3.603.91-2.88.993-5.966.261-8.892-1.027-4.108-3.559-7.695-6.607-10.644C12.98 6.258 6.737 2.893.44.191" fill="url(#aw)" transform="translate(868 410)"/><path d="M6.165 44.788l-.165.04c.242-.061 1.146.827 1.303.957 1.255 1.037 2.382 2.222 3.428 3.458 1.056 1.248 1.853 2.545 3.406 3.263 1.272.588 2.793.717 4.051.023.322-.177.614-.401.875-.657.633-.622.976-.98.933-1.906-.042-.912-.379-1.841-.844-2.627C16.6 43.03 10.3 43.758 6.164 44.788" fill="url(#ax)" transform="translate(868 410)"/><path d="M40.705 31.057c-5.568 1.06-11.82 2.853-15.76 7.098-2.11 2.273-3.254 5.258-2.872 8.327.307 2.463 1.238 4.272 3.72 5.114.62.21 1.266.347 1.92.39 2.563.166 4.888-1.15 6.447-3.002 1.904-2.261 2.137-4.877 2.824-7.604.68-2.703 1.53-5.384 2.702-7.928.146-.318.878-2.372 1.314-2.452-.1.018-.196.038-.295.057" fill="url(#ay)" transform="translate(868 410)"/><path d="M29.846 82.778L14.385 83c-2.475 0-4.5-1.95-4.5-4.333L7 60.334c0-2.383 2.025-4.333 4.5-4.333h21c2.475 0 4.5 1.95 4.5 4.333l-2.654 18.111c0 2.383-2.025 4.333-4.5 4.333" fill="url(#az)" transform="translate(868 410)"/></g><g transform="translate(119 271)"><g transform="translate(39 259)"><mask id="aC" fill="#fff"><use xlink:href="#aA"/></mask><path d="M10.567 1.717c.453.063.883.23 1.229.512 2.401 1.973 5.377 4.218 7.529 5.027 3.632 1.37 5.744 3.555.089 3.555-5.653 0-7.369-.177-9.075-.216-2.521-.06-1.387.216-7.681.216-3.097 0-1.644-5.757.058-8.55.517-.85.692-1.556 1.728-1.409l6.123.865z" fill="url(#aB)" mask="url(#aC)"/></g><path fill="#D6DDEA" d="M63 263l3.125-14 6.875.71L68.323 264z"/><g transform="translate(57 259)"><mask id="aF" fill="#fff"><use xlink:href="#aD"/></mask><path d="M11.918 1.717a2.56 2.56 0 011.26.512c2.46 1.973 9.949 5.503 13.79 6.04 4.119.573 4.33 2.542-1.466 2.542-5.794 0-10.044-.5-12.627-.436-2.584.063-3.57.436-9.925.436-4.876 0-1.692-6.005.054-8.798.53-.85 1.577-1.308 2.639-1.16l6.275.864z" fill="url(#aE)" mask="url(#aF)"/></g><g transform="translate(71 14)"><mask id="aI" fill="#fff"><use xlink:href="#aG"/></mask><path d="M65.116 1.305c-1.77 1.253-3.725 2.289-5.372 3.14-1.113.148-2.304.603-3.298 1.214-1.238.757-7.231 4.627-8.846 9.55a144.122 144.122 0 01-2.44 4.612l-.538.988c-.18.313-.341.61-.503.906a154.837 154.837 0 01-2.494 4.215c-3.14 5.171-5.993 9.09-7.32 9.864-4.845 2.24-19.45.741-28.26-1.054-2.674-.527-5.33 1.021-5.922 3.475-.592 2.454 1.095 4.89 3.786 5.434 2.674.542 12.488 2.404 21.711 2.404 4.953 0 9.743-.543 13.152-2.124 3.553-1.647 6.98-8.365 9.528-14.508a104.5 104.5 0 001.56-3.92c.36-.938.7-1.81 1.006-2.617.018-.068.054-.134.071-.198.503-1.433.951-2.602 1.256-3.392.627-1.598 1.005-2.256 1.58-3.459.556-1.202 5.957-1.22 8.163-2.587 2.297-1.398 2.028-4.988 1.095-7.326-.066-.166-.172-.285-.262-.421.416-.242.838-.496 1.272-.763 3.167-1.936 5.781-6.766 1.075-3.433" fill="url(#aH)" mask="url(#aI)"/></g><path d="M79 23.713C79 13.878 71.048 6 60.357 6S41 13.973 41 23.81c0 6.836 3.96 14.378 10.104 17.363-.246 4.376.248 9.186 3.208 13.504 3.145 4.589 3.755 5.514 3.807 5.594C59.26 62.027 61.275 63 63.35 63c1.06 0 2.136-.256 3.115-.792 2.884-1.584 3.83-5.023 2.11-7.68 0 0-.498-.77-3.963-5.825-.86-1.258-1.437-2.625-1.38-5.721C75.568 45.13 79 32.572 79 23.712" fill="url(#aJ)"/><path d="M86.758 146.67c.297 4.96 1.934 34.733 2.236 49.017.392 18.578-16.264 59.134-18.375 64.312l-9.426-.586c9.675-39.197 10.79-50.22 10.515-63.42-.238-11.23-5.085-32.745-7.471-42.811-.377 11.34-1.333 37.04-2.465 49.942-1.311 14.993-10.126 55.704-10.158 56.159H42c.032-.457 1.217-42.321 2.538-57.421 1.245-14.207-.125-45.815-.495-53.01-1.331-4.704-3.132-14.145-.788-25.852h43.253s1.095 11.23.25 23.67z" fill="url(#aK)"/><path d="M47 51.933s-6.946 30.924-8.247 36.637c-.497 2.17-2.2 3.814-4.456 4.242a6.61 6.61 0 01-1.5.188c-2.019 0-4.033-2.874-10.12-11.29-.181-.256-.383-.53-.584-.803a289.94 289.94 0 01-2.273-3.147c-.202-.29-.423-.582-.643-.872-1.41-1.916-3.004-4.054-4.764-6.415-1.74.582-6.982 3.233-9.055 3.233-2.803 0-6.248-.256-5.148-2.668 1.17-2.549 3.885-4.26 6.542-4.977 1.412-.394 3.996-1.044 5.02-1.608.074-.034.167-.052.24-.103.145-.068.312-.137.477-.188.147-.068.312-.103.458-.154.165-.034.33-.068.477-.103.181-.017.348-.05.513-.05.146-.018.311-.018.458-.018.165 0 .346.017.511.034.147.017.294.034.44.069.185.034.35.068.497.12.165.034.293.085.438.153.167.052.313.12.458.206.147.068.277.136.405.222.147.085.273.188.403.29.129.086.255.189.367.309.108.102.238.239.346.359.057.068.112.12.167.188 1.96 2.514 4.124 5.2 6.248 7.697.24.273.478.564.717.838a194.99 194.99 0 002.564 2.942c.238.256.458.513.678.77a74.776 74.776 0 001.724 1.847c.33-1.471.697-3.08 1.063-4.755.053-.223.11-.462.165-.702C34.006 63.614 37.085 50 37.085 50L47 51.932z" fill="url(#aL)"/><path d="M29 78.871L22.702 82c-.194-.218-.407-.451-.619-.684-.757-.83-1.552-1.717-2.405-2.678-.213-.247-.445-.495-.678-.742L24.814 75c.254.233.506.48.756.713.93.873 1.843 1.717 2.713 2.503.252.218.485.437.717.655" fill="#ED8C62"/><path d="M113.18 35c-6.112 10.884-8.857 13.163-9.278 13.469-4.555 2.012-15.41 1.16-24.07-.471-2.146-.565-3.908-.946-4.64-.946H39.923c-2.024 0-3.656 1.315-4.092 3.017l-.005-.001s-3.953 17.5-6.495 28.707a189.443 189.443 0 01-2.033-2.262l-9.294 6.921c7.1 8.078 10.76 10.935 14.4 10.952h.038c.55 0 1.117-.068 1.684-.185a6.779 6.779 0 001.865-.716 6.265 6.265 0 003.094-4.116c.275-1.197.804-3.534 1.472-6.477C42.498 98.149 45.49 101.245 43.26 123h42.607s-1.621-40.382-4.628-62.01c4.198.597 10.228.786 15.602.308 5.174-.46 8.927-1.316 12.532-3 1.719-.799 3.847-1.751 12.63-17.398L113.18 35z" fill="url(#aM)"/><path d="M28 76.775L18.515 84c-.488-.568-.99-1.172-1.515-1.793L26.487 75c.542.639 1.046 1.225 1.513 1.775" fill="#fff"/><path d="M122 36.026c-.018.07-.053.14-.074.209-.313.852-.661 1.774-1.031 2.765L115 35c.166-.313.332-.626.516-.957.184-.347.37-.695.552-1.043L122 36.026z" fill="#ED8C62"/><path d="M124 39.389a73.09 73.09 0 01-1.007 1.61L114 35.627c.317-.511.65-1.053 1.007-1.626L124 39.389z" fill="#fff"/><path d="M41 82.74c-.738 2.842-1.318 5.09-1.62 6.263-.438 1.735-1.678 3.156-3.38 3.997l2.342-27A558.154 558.154 0 0141 82.74" fill="#000" opacity=".099"/><use fill="url(#E)" xlink:href="#aN"/><use fill="url(#aO)" xlink:href="#aN"/><use fill="url(#aP)" xlink:href="#aN"/><path d="M59 24.5c0 1.972.964 3.737 2.485 4.918 1.778 1.383 4.515.136 4.515-2.006V21.59c0-2.142-2.737-3.391-4.515-2.008C59.964 20.763 59 22.528 59 24.5" fill="#FFCAA8"/></g><g><path d="M850.464 516.34l3.112 6.058-6.387 7.727-5.73-1.968-1.31-.91s-.49-2.612-.328-6.817c.168-4.335 10.643-4.09 10.643-4.09" fill="#FECEBE"/><path d="M44.682 288.5c3.67-.226 6.269 3.163-6.031 4.03-13.295.936-16.268-1.646-18.67-2.737-2.404-1.094-19.776-7.718-19.776-7.718s-1.284-3.841 2.561-5.15c.132-.046.281-.075.446-.09 1.74-3.185 3.47-7.438 3.47-7.438s3.99 2.793 8.245 4.806c3.487 1.65 7.152 2.777 8.945 1.413 3.978-3.03 3.181 1.434 6.683 5.26 2.767 3.024 11.296 6.247 14.126 7.624z" fill="url(#aQ)" transform="matrix(-1 0 0 1 861 248)"/><path d="M776.371 521.88l.84 6.86-8.331 5.626-4.563-3.653-.893-1.283s.41-2.702 1.935-6.762c1.573-4.187 11.012-.788 11.012-.788" fill="#FECEBE"/><path d="M80.748 284.61c.561-3.516.823-7.587.823-7.587s15.607 4.701 18.454.462c2.846-4.239 3.507.361 8.083 2.945 3.737 2.11 13.441 2.427 16.263 2.866l.423-.11s7.912 1.175-4.535 6.064c-12.448 4.888-16.6 3.293-19.262 3.004-2.665-.291-21.056-1.111-21.056-1.111s-3.761-4.112.807-6.533z" fill="url(#aR)" transform="matrix(-1 0 0 1 861 248)"/><path d="M20.455 161.21l54.953.363s14.059 30.497 15.666 47.878c1.605 17.382 5.14 62.766 6.427 64.375 1.286 1.61-14.462 1.93-14.462 1.93s-9.64-35.083-10.282-56.97c-.644-9.335-10.605-24.14-18.639-32.51-.964-1.93-1.928-1.61-1.928 4.183s-2.57 32.19-2.57 32.19.642 5.471-4.18 11.265c-4.82 5.794-22.171 39.912-22.171 39.912l-14.783-6.115 19.602-39.912s2.251-7.082.966-15.771c-1.288-8.693-10.767-29.533-8.598-50.817" fill="url(#aS)" transform="matrix(-1 0 0 1 861 248)"/><path d="M826.743 296.856s-12.946 1.536-22.537-1.919c-9.592-3.455-1.597 27.375-1.597 27.375s.158 13.05.476 13.433c.323.385 8.954 3.711 10.55 3.453 1.6-.254 8.633-2.94 8.471-3.58-.158-.64 4.955-24.306 4.955-24.306l-.798-14.969" fill="#E0E2EC"/><path d="M37.835 38.182s-6.19 1.861-6.348 4.744c-1.274 3.041-3.503 6.403-9.873 7.525-3.663 1.762-8.598 3.683-11.625 22.097-1.909 9.926-1.59 9.765-2.864 12.649-1.274 2.88-2.07 7.525-1.753 9.605.319 2.083.637 16.172 1.434 22.897.53 4.485 2.572 14.705 6.125 30.66l8.683-3.439s-.477-40.189.318-46.756l1.911-9.606-1.115 74.616 51.59.16s3.185-.16 2.23-2.401c-.956-2.242-4.857-22.897-7.723-43.552l-1.911-9.369s-.556-5.683 3.582.402c4.142 6.083 6.051 7.364 6.051 7.364s5.733 4.163 7.007-3.843c1.273-8.006-2.867-30.742-7.325-41.951C71.77 58.777 63.173 49.81 50.435 43.405c0 0 5.732 5.444 4.937 11.529-.799 6.085-1.753 6.564-2.073 15.531-.316 8.967-.477 16.653-.477 16.653s-1.432 3.682-2.227-1.283c-.799-4.961-2.071-27.7-6.688-30.9-4.619-3.203.477-2.403.477-2.403s0-1.6-1.91-1.76c-1.912-.16-5.722-2.064-5.243-5.907.478-3.845 1.841-6.376 1.49-6.683h-.886z" fill="url(#aT)" transform="matrix(-1 0 0 1 861 248)"/><path d="M59.712 11.204s.97 9.601 3.635 12.362c.605 1.44.363 1.2-1.695 1.8-2.06.601-1.455 1.68-1.455 3.84 0 2.161-.364 3.72-1.816 3.72-1.453 0 .362 1.921-2.06 2.52-2.422.602-3.633-1.56-3.512 2.4.12 3.962 1.574 9.363 3.634 12.002 2.059 2.64-17.927 3.84-19.138-2.64-1.21-6.48 3.15-8.042.485-12.482s-1.455-15.841-1.455-15.841S38.88-.556 59.712 11.204" fill="url(#aU)" transform="matrix(-1 0 0 1 861 248)"/><g transform="matrix(-1 0 0 1 835.545 250.121)"><mask id="aW" fill="#fff"><use xlink:href="#aV"/></mask><path d="M-73.083 53.27s-8.704 3.221-5.683-5.013c3.022-8.233-2.536-8.949-2.536-8.949s-2.419-1.43 1.088-4.414c3.503-2.984 3.866-4.893 3.02-7.518-.846-2.625-1.934-6.683 3.869-5.728 5.8.954 6.045.237 8.1-2.388 2.055-2.625 5.44 1.313 7.01 2.029 1.57.717 7.616.359 9.79-.359 2.177-.715 7.495 4.417-.725 7.757-8.217 3.343-7.977-.715-9.669 5.37-.363 1.552-3.264.121-4.474 1.672-1.209 1.552 1.815 3.818.123 6.324-1.693 2.505-3.024 1.194-3.143-3.102-.123-4.297-4.595-6.921-3.87-1.552.726 5.37.967 13.723-2.9 15.871" fill="#FB603D" mask="url(#aW)"/></g><path d="M790.798 345.915s2.89 2.063 2.223-.728c-.668-2.793-2.112-2.793-2.112-2.793h-13.89s-2.557 6.069 1.111 6.312c1.778.12 1.556 2.064 1.556 2.064s6.778 4.853 9.447.243c.555-2.915-.113-5.826 1.665-5.098M847.82 395.906s-4.962 3.242-7.738 9.838c-2.775 6.6-6.645 8.026-11.722 3.37 0 0-2.154-.587-2.802-2.11-.65-1.524-2.667.886-2.974-1.62-.307-2.508-.63-4.198 1.499-5.698 2.127-1.5-3.204.278-1.457-1.51 1.744-1.787 3.418-1.356 4.794-2.385 1.375-1.035 4.371-3.948 8.478-2.508 2.182-1.044 2.852.817 3.948-2.494" fill="#FDCDBD"/><path d="M58.891 3.49C48.65-1.496 38.21-.28 34.875 1.854 31.54 3.991 28.59 5.7 28.637 15.437c.047 9.737 6.172 7.306 3.504 12.975-2.668 5.669 2.734 7.435 6.534 7.634 9.632.507 16.037-12.05 15.494-19.348a130.45 130.45 0 00-.156-1.96l.93.187C66.256 17.233 64.613 3.59 64.613 3.59s-.263 2.555-5.722-.1z" fill="url(#aX)" transform="matrix(-1 0 0 1 861 248)"/><g transform="translate(686 346.64)"><use fill="#000" filter="url(#aY)" xlink:href="#aZ"/><rect x=".265" y=".265" width="144.92" height="145.91" rx="5.487" fill="#fff" stroke="#979797" stroke-linejoin="square" stroke-opacity=".13" stroke-width=".53"/><text fill="#000" font-family="Lato-Medium, Lato" font-size="12.94" font-weight="400" letter-spacing=".118"><tspan x="17.792" y="29.175">Business Team</tspan></text><path d="M19.713 57.421h38.123a1.92 1.92 0 110 3.841H19.713a1.92 1.92 0 110-3.841z" fill="#E4E5EC" opacity=".801"/><path d="M19.713 48.524h19.062a1.92 1.92 0 110 3.841H19.713a1.92 1.92 0 110-3.841z" fill="#A84BFF"/><path d="M19.005 103.52h100.28a1.213 1.213 0 010 2.426H19.005a1.213 1.213 0 010-2.426z" fill="#E4E5EC"/><path d="M19.005 103.52h21.836a1.213 1.213 0 010 2.426H19.005a1.213 1.213 0 010-2.426z" fill="#00A2DA"/><ellipse cx="22.737" cy="85.727" rx="4.136" ry="4.044" fill="#E4E5EC" fill-rule="nonzero"/><ellipse cx="51.043" cy="85.727" rx="4.136" ry="4.044" fill="#E4E5EC" fill-rule="nonzero"/><ellipse cx="36.486" cy="85.727" rx="4.136" ry="4.044" fill="#E4E5EC" fill-rule="nonzero"/><ellipse cx="64.792" cy="85.727" rx="4.136" ry="4.044" fill="#E4E5EC" fill-rule="nonzero"/><ellipse cx="78.54" cy="85.727" rx="4.136" ry="4.044" fill="#E4E5EC" fill-rule="nonzero"/><circle cx="26.284" cy="125.76" r="8.492" fill="#FF6D4A" fill-rule="nonzero" opacity=".1"/><circle cx="47.311" cy="125.76" r="8.492" fill="#613F95" fill-rule="nonzero" opacity=".1"/><circle cx="69.147" cy="125.76" r="8.492" fill="#3498DB" fill-rule="nonzero" opacity=".1"/></g><path transform="scale(-1 1) rotate(-37 -32.327 1562.299)" d="M18.344 140s2.012 5.575.259 12.514c-1.755 6.94.478 10.409 7.334 9.747 0 0 2.073.827 3.508 0 1.436-.825 1.596 2.313 3.35.496 1.754-1.818 3.028-2.974 2.232-5.453-.797-2.477 2.39 2.15 2.072-.328-.318-2.478-1.914-3.14-2.393-4.79-.476-1.655-1.115-5.784-5.261-7.106-1.116-2.147-2.77-1.063-1.653-4.368" fill="url(#ba)"/><path d="M70.202 97.915s-2.89 2.063-2.223-.728c.668-2.793 2.112-2.793 2.112-2.793h13.89s2.557 6.069-1.111 6.312c-1.778.12-1.556 2.064-1.556 2.064s-6.778 4.853-9.447.243c-.555-2.915.113-5.826-1.665-5.098" fill="url(#ba)" transform="matrix(-1 0 0 1 861 248)"/></g><g><g stroke-linecap="square" stroke-linejoin="bevel" transform="translate(109 312)"><use fill="#000" filter="url(#bb)" xlink:href="#bc"/><use fill="#FFF" xlink:href="#bc"/><use fill="url(#bd)" stroke="#FFF" stroke-width="2.041" xlink:href="#bc"/></g><g transform="translate(110.02 312.52)"><mask id="bf" fill="#fff"><use xlink:href="#be"/></mask><path d="M13.568 17.577s3.196.492 3.668 1.009c.412.45 1.266 4.765 1.464 5.712h-7.22V18.17l2.088-.594z" fill="#2A2D34" mask="url(#bf)"/><mask id="bi" fill="#fff"><use xlink:href="#bg"/></mask><path fill="url(#bh)" mask="url(#bi)" d="M9.799 19.224h3.362v-3.878H9.799z"/><path d="M11.48 4.168c1.632 0 4.214.976 4.214 5.551 0 2.642-.819 4.372-1.175 4.85-.329.441-2.173 1.38-3.039 1.38-.866 0-2.71-.939-3.038-1.38-.357-.478-1.176-2.208-1.176-4.85 0-4.575 2.582-5.55 4.214-5.55z" fill="url(#bj)" mask="url(#bi)"/><path d="M16.505 10.81c.072-.73-.259-1.38-.74-1.449-.48-.07-.927.467-1 1.198-.071.731.26 1.38.74 1.449.48.07.928-.467 1-1.198" fill="#EAC0A7" mask="url(#bi)"/><path d="M6.454 10.81c-.072-.73.26-1.38.74-1.449.48-.07.927.467 1 1.198.071.731-.26 1.38-.74 1.449-.48.07-.928-.467-1-1.198" fill="#F2D7BC" mask="url(#bi)"/><path d="M8.488 6.599c-.203.589-.31 1.287-.086 1.965.09 1.978-.091 2.649-.698 3.191.152-1.915-.03-2.553-.698-2.33-.197-1.082.055-3.489.948-4.278 2.87-4.38 6.887-2.118 7.553.757.471 1.06.587 2.685.435 3.521-.667-.223-.85.415-.698 2.33-.607-.542-.788-1.213-.698-3.191.225-.681.117-1.383-.089-1.973l-.001-.003c-.551-1.192-1.745-.982-2.97-.7-2.461-.61-2.998.71-2.998.71z" fill="url(#bk)" mask="url(#bi)"/><path d="M9.39 17.577s-3.196.492-3.668 1.009c-.41.45-1.265 4.765-1.463 5.712h7.22V18.17l-2.088-.594z" fill="#2F343A" mask="url(#bi)"/><path fill="#B9C7D0" mask="url(#bi)" d="M13.607 17.487l-2.127.459-2.128-.459 2.128 6.811"/><path fill="#129E95" mask="url(#bi)" d="M11.302 18.864l-.347 4.606.525.828.524-.828-.347-4.606z"/><path d="M9.946 20.427l-1.692-2.64c.463-.177.96-.31 1.483-.4l1.743 6.91-2.444-3.68.91-.19z" fill="#3A404C" mask="url(#bi)"/><path d="M13.014 20.427l1.692-2.64a7.912 7.912 0 00-1.483-.4l-1.743 6.91 2.444-3.68-.91-.19z" fill="#3A404C" mask="url(#bi)"/><path fill="#129E95" mask="url(#bi)" d="M12.054 18.569l-.574.622-.574-.622.574-.622z"/><path fill="#fff" mask="url(#bi)" d="M11.48 17.946l1.706-.908.88.539-1.827 1.537zM11.48 17.946l-1.707-.908-.88.539 1.796 1.537z"/><path d="M13.895 13.989c-.844 0-1.447-.721-2.415-.721s-1.571.721-2.415.721c-.925 0-1.507-1.678-1.682-2.266.238 1.693.785 2.801 1.059 3.17.328.44 2.173 1.378 3.038 1.378.866 0 2.71-.938 3.039-1.379.274-.368.821-1.477 1.06-3.17-.176.586-.758 2.267-1.684 2.267" fill="url(#bk)" mask="url(#bi)"/><path d="M11.48 14.795c.285 0 .515-.126.515-.282h-1.03c0 .156.23.282.515.282" fill="#fff" mask="url(#bi)"/></g></g></g></svg>